<svg xmlns="http://www.w3.org/2000/svg" width="24" height="24" viewBox="0 0 24 24" fill="none">
  <path d="M18.736 13.7969C21.476 14.7539 23.25 16.2809 23.25 18.0019C23.25 20.9019 18.213 23.2519 12 23.2519C5.787 23.2519 0.75 20.8969 0.75 17.9969C0.75 16.2819 2.511 14.7599 5.235 13.8019" stroke="#4E9C79" stroke-width="1.5" stroke-linecap="round" stroke-linejoin="round"/>
  <path d="M12 6C13.4497 6 14.625 4.82475 14.625 3.375C14.625 1.92525 13.4497 0.75 12 0.75C10.5503 0.75 9.375 1.92525 9.375 3.375C9.375 4.82475 10.5503 6 12 6Z" stroke="#4E9C79" stroke-width="1.5" stroke-linecap="round" stroke-linejoin="round"/>
  <path d="M15.75 12.745V10.5C15.75 9.50544 15.3549 8.55161 14.6517 7.84835C13.9484 7.14509 12.9946 6.75 12 6.75C11.0054 6.75 10.0516 7.14509 9.34835 7.84835C8.64509 8.55161 8.25 9.50544 8.25 10.5V12.75H9.75L10.5 18.75H13.5L14.25 12.75L15.75 12.745Z" stroke="#4E9C79" stroke-width="1.5" stroke-linecap="round" stroke-linejoin="round"/>
</svg>